<svg width="231" height="111" viewBox="0 0 231 111" fill="none" xmlns="http://www.w3.org/2000/svg">
<path d="M70.7808 10.4454L66.7992 11.5692L69.389 8.23277L67.1452 4.67826L70.9918 6.1867L73.5788 2.86997L73.3719 7.12872L77.2361 8.64167L73.2503 9.7624L73.042 14.0211L70.7808 10.4454ZM90.4447 25.1149L86.4383 24.0365L90.2907 22.4917L90.078 18.236L92.6897 21.5315L96.5289 20.0034L94.3043 23.5715L96.8941 26.8701L92.92 25.7858L90.675 29.3963L90.4447 25.1149ZM15.6428 90.2953L11.8198 91.8552L14.0341 88.2554L11.4033 84.9796L15.3936 86.0381L17.6065 82.4155L17.8719 86.6984L21.8783 87.7527L18.0229 89.3185L18.2884 93.5772L15.6428 90.2953ZM4.08853 65.8849L0 65.2532L3.66472 63.2996L2.97254 59.091L5.92748 62.0668L9.59071 60.0722L7.74882 63.9025L10.7023 66.8965L6.62111 66.2742L4.77337 70.0829L4.08853 65.8849ZM7.87934 40.4247L4.45221 42.7767L5.87909 38.7785L2.64844 36.1342L6.75016 36.3113L8.18291 32.3116L9.30769 36.4189L13.449 36.5794L10.0057 38.9526L11.132 43.0872L7.87934 40.4247ZM21.4691 18.6676L17.3616 18.9463L20.5335 16.2141L19.004 12.2658L22.4971 14.524L25.6663 11.813L24.6602 15.9324L28.1474 18.2148L24.0252 18.4934L23.0133 22.6325L21.4691 18.6676ZM44.7288 0L46.6396 3.76199L50.7134 3.05472L47.8362 6.08825L49.7661 9.8866L46.0515 7.97833L43.1554 11.0497L43.7581 6.8152L40.0669 4.92662L44.1188 4.22089L44.7288 0ZM40.0333 49.38C40.0333 46.0889 40.0333 45.4984 39.9921 44.8228C39.951 44.105 39.7883 43.7673 39.1138 43.6203C38.9699 43.5779 38.7045 43.5779 38.5212 43.5566C38.379 43.5354 38.2558 43.5142 38.2558 43.4296C38.2558 43.3038 38.3571 43.2614 38.5828 43.2614C39.0522 43.2614 39.6035 43.2614 40.8911 43.325C41.0347 43.325 45.0999 43.325 45.5691 43.3038C46.0193 43.2826 46.3874 43.2402 46.5092 43.1765C46.6324 43.1129 46.6719 43.0934 46.7335 43.0934C46.7951 43.0934 46.8155 43.1765 46.8155 43.2826C46.8155 43.4296 46.694 43.6839 46.6529 44.273C46.6324 44.5897 46.6117 44.9925 46.5708 45.5391C46.5501 45.7512 46.4885 45.8983 46.4065 45.8983C46.2847 45.8983 46.2438 45.7937 46.2438 45.624C46.2438 45.3499 46.2026 45.0971 46.141 44.9289C45.9988 44.4427 45.5691 44.2323 44.6701 44.1474C44.3226 44.105 42.0966 44.0838 41.8707 44.0838C41.7901 44.0838 41.7489 44.1474 41.7489 44.2959V50.119C41.7489 50.266 41.7696 50.3296 41.8707 50.3296C42.1375 50.3296 44.6497 50.3296 45.1203 50.2872C45.6718 50.2448 45.9372 50.1811 46.141 49.9283C46.2438 49.8025 46.3054 49.7176 46.3874 49.7176C46.4476 49.7176 46.4885 49.7601 46.4885 49.8859C46.4885 50.0129 46.3874 50.372 46.3258 51.0686C46.2642 51.7213 46.2642 52.2075 46.2438 52.5028C46.2231 52.7134 46.1822 52.8195 46.0999 52.8195C45.9784 52.8195 45.9577 52.6498 45.9577 52.4815C45.9577 52.2909 45.9372 52.0802 45.8756 51.891C45.7936 51.5745 45.5486 51.279 44.814 51.1942C44.2625 51.1308 42.2388 51.0884 41.8926 51.0884C41.7901 51.0884 41.7489 51.152 41.7489 51.2366V53.0935C41.7489 53.8113 41.7285 56.2587 41.7489 56.701C41.7901 57.5658 41.9118 58.0308 42.4236 58.2412C42.7711 58.3912 43.3226 58.4321 44.1188 58.4321C44.7317 58.4321 45.4064 58.4094 45.9577 58.2412C46.6117 58.0308 46.8362 57.587 46.9989 56.6798C47.04 56.4482 47.0812 56.3633 47.1837 56.3633C47.3054 56.3633 47.3054 56.5328 47.3054 56.6798C47.3054 56.8495 47.1428 58.2836 47.04 58.7259C46.8978 59.2757 46.7335 59.2757 45.9372 59.2757C44.4254 59.2757 43.7507 59.2333 42.9544 59.2121C42.1375 59.1894 41.1976 59.1484 40.3997 59.1484C39.9101 59.1484 39.4202 59.2333 38.8893 59.2121C38.6636 59.2121 38.5623 59.1697 38.5623 59.0424C38.5623 58.9802 38.6636 58.9378 38.7866 58.9166C38.9906 58.8954 39.1138 58.8954 39.256 58.8532C39.6856 58.7486 39.951 58.4519 39.9921 56.8707C40.0126 56.0466 40.0333 54.9714 40.0333 53.0935V49.38ZM53.0378 49.38C53.0378 46.0874 53.0378 45.4967 52.9953 44.8228C52.9558 44.105 52.7914 43.7673 52.1184 43.6203C51.9225 43.5823 51.7238 43.5611 51.5246 43.5566C51.3412 43.5566 51.2591 43.5142 51.2591 43.4296C51.2591 43.3038 51.3616 43.2614 51.5862 43.2614C52.5056 43.2614 53.7932 43.325 53.8957 43.325C54.3856 43.325 55.1818 43.2614 56.1219 43.2614C59.4726 43.2614 60.2075 45.3711 60.2075 46.4266C60.2075 48.1562 59.2484 49.189 58.2878 50.2236C59.7996 50.7083 61.8221 52.206 61.8221 54.6747C61.8221 56.9326 60.1062 59.274 56.613 59.274C56.3873 59.274 55.7348 59.2333 55.1407 59.2121C54.7263 59.1817 54.3112 59.1605 53.8957 59.1484C53.2416 59.1484 52.6081 59.2121 51.8925 59.2121C51.6682 59.2121 51.5655 59.1697 51.5655 59.0636C51.5655 59 51.6066 58.9151 51.872 58.9151C52.0364 58.9151 52.1786 58.8939 52.3634 58.8515C52.7724 58.7669 52.853 58.2822 52.9351 57.6702C53.0378 56.7844 53.0378 55.1169 53.0378 53.092V49.38ZM54.6714 49.8449C54.6714 49.9934 54.7126 50.0358 54.8153 50.078C54.9369 50.0978 55.305 50.1614 56.0603 50.1614C57.2055 50.1614 57.4901 50.1204 57.9196 49.6133C58.3494 49.1074 58.656 48.3472 58.656 47.4823C58.656 45.7315 57.8992 43.8536 55.8974 43.8536C55.6732 43.8536 55.2434 43.8748 54.9164 43.958C54.733 44.0019 54.6714 44.064 54.6714 44.1913V49.8449ZM54.6714 52.0817C54.6714 53.7067 54.6714 56.3224 54.6921 56.6389C54.7537 57.6734 54.7537 57.9686 55.3871 58.2851C55.9386 58.5609 56.8169 58.6016 57.1836 58.6016C58.2878 58.6016 60.0653 57.9899 60.0653 55.6061C60.0653 54.3399 59.656 52.5042 58.084 51.3866C57.3888 50.9004 56.877 50.8368 56.3873 50.7734C56.1219 50.7309 55.0998 50.7309 54.7932 50.7309C54.7126 50.7309 54.6714 50.7734 54.6714 50.8792V52.0817ZM67.1409 49.38C67.1409 46.0889 67.1409 45.4984 67.1 44.8228C67.0588 44.105 66.8959 43.7673 66.2214 43.6203C65.9921 43.5774 65.7594 43.5559 65.5263 43.5566C65.4442 43.5566 65.3636 43.5142 65.3636 43.4296C65.3636 43.3038 65.4647 43.2614 65.6906 43.2614C66.6101 43.2614 67.836 43.325 67.9987 43.325C68.4489 43.325 69.6325 43.2614 70.5724 43.2614C73.1271 43.2614 74.0451 44.1474 74.3736 44.4639C74.8223 44.9062 75.3943 45.8558 75.3943 47.2278C75.3943 49.9705 73.2693 51.9971 70.3686 51.9971C70.2659 51.9971 70.0416 51.9971 69.9389 51.9741C69.8378 51.9741 69.7146 51.9334 69.7146 51.8274C69.7146 51.6577 69.8378 51.6379 70.2659 51.6379C72.2472 51.6379 73.8016 50.2448 73.8016 48.029C73.8016 47.5021 73.74 46.0889 72.6562 44.9486C71.5741 43.8097 70.3275 43.8946 69.8582 43.8946C69.5108 43.8946 69.1631 43.9368 68.9783 44.0201C68.8568 44.0626 68.8156 44.2111 68.8156 44.4215V53.0935C68.8156 55.1199 68.8156 56.7859 68.9184 57.6719C68.9783 58.2836 69.1015 58.7471 69.7146 58.832C70.0005 58.8727 70.4507 58.9166 70.634 58.9166C70.7572 58.9166 70.7984 58.9802 70.7984 59.0424C70.7984 59.1484 70.6956 59.2121 70.4714 59.2121C69.3464 59.2121 68.0589 59.1484 67.9578 59.1484C67.8962 59.1484 66.6101 59.2121 65.9972 59.2121C65.7712 59.2121 65.6699 59.1697 65.6699 59.0424C65.6699 58.9802 65.7096 58.9166 65.8328 58.9166C66.0162 58.9166 66.2626 58.8744 66.4457 58.832C66.855 58.7471 66.9575 58.2836 67.0384 57.6719C67.1409 56.7859 67.1409 55.1199 67.1409 53.0935V49.38ZM78.9108 51.2171C78.9108 47.7988 81.3216 42.9676 86.9587 42.9676C91.5561 42.9676 94.9877 45.9634 94.9877 50.8792C94.9877 55.6046 91.7599 59.5088 86.837 59.5088C81.2396 59.5088 78.9108 55.0138 78.9108 51.2171ZM93.0271 51.47C93.0271 46.4054 90.0443 43.6839 86.8165 43.6839C83.404 43.6839 80.851 46.0056 80.851 50.6249C80.851 55.5409 83.7105 58.7062 87.3885 58.7062C89.2274 58.7062 93.0271 57.6097 93.0271 51.47ZM112.486 53.095C112.486 55.1199 112.486 56.7025 112.568 57.5885C112.629 58.3912 112.813 58.7274 113.405 58.8335C113.691 58.8971 113.957 58.8971 114.201 58.9183C114.427 58.941 114.468 59.0029 114.468 59.0666C114.468 59.1514 114.386 59.215 114.201 59.215C113.242 59.215 111.751 59.1514 111.587 59.1514C111.403 59.1514 110.239 59.215 109.605 59.215C109.32 59.215 109.278 59.1514 109.278 59.0666C109.278 59.0029 109.299 58.941 109.585 58.9183C109.727 58.8971 109.809 58.8971 109.993 58.8547C110.32 58.791 110.626 58.5804 110.688 57.6536C110.749 56.7676 110.77 54.9744 110.77 52.948V44.361C110.77 44.2762 110.708 44.214 110.647 44.214C110.34 44.1928 109.32 44.1928 106.214 44.1928C103.21 44.1928 102.7 44.1928 102.414 44.214C102.169 44.2337 102.066 44.2762 102.066 44.6139V53.1586C102.066 55.1835 102.087 56.6601 102.148 57.5461C102.19 58.2639 102.332 58.7274 102.945 58.8335C103.231 58.8759 103.599 58.8971 103.782 58.9183C104.027 58.941 104.089 59.0029 104.089 59.0863C104.089 59.1499 104.008 59.2136 103.721 59.2136C102.863 59.2136 101.249 59.1499 101.147 59.1499C100.984 59.1499 99.8608 59.2136 99.2479 59.2136C99.022 59.2136 98.8798 59.1924 98.8798 59.0863C98.8798 59.0241 98.9002 58.9605 99.1247 58.9183C99.3079 58.8971 99.349 58.8971 99.5733 58.8547C100.044 58.7698 100.228 58.3488 100.268 57.4415C100.33 56.5555 100.351 55.1199 100.351 53.095V49.339C100.351 46.048 100.351 45.4984 100.31 44.8243C100.268 44.0216 100.023 43.7476 99.4518 43.6218C99.2258 43.5793 99.003 43.5793 98.8182 43.5581C98.6348 43.5372 98.5732 43.4735 98.5732 43.3887C98.5732 43.3053 98.6964 43.2629 98.9207 43.2629C99.676 43.2629 100.84 43.3265 101.147 43.3265H111.546C111.648 43.3265 113.201 43.2629 113.65 43.2629C113.936 43.2629 113.957 43.3265 113.957 43.3887C113.957 43.4735 113.895 43.5159 113.691 43.5581C113.568 43.5793 113.467 43.5793 113.303 43.6218C112.792 43.7476 112.568 43.8748 112.527 44.8031C112.486 45.4787 112.486 46.0904 112.486 49.3814V53.095ZM120.353 49.38C120.353 46.0889 120.353 45.4984 120.314 44.8228C120.273 44.105 120.108 43.7673 119.434 43.6203C119.29 43.5779 119.026 43.5779 118.843 43.5566C118.699 43.5354 118.576 43.5142 118.576 43.4296C118.576 43.3038 118.677 43.2614 118.904 43.2614C119.372 43.2614 119.924 43.2614 121.211 43.325C121.356 43.325 125.42 43.325 125.889 43.3038C126.339 43.2826 126.708 43.2402 126.829 43.1765C126.952 43.1129 126.992 43.0934 127.054 43.0934C127.115 43.0934 127.136 43.1765 127.136 43.2826C127.136 43.4296 127.014 43.6839 126.974 44.273C126.952 44.5897 126.933 44.9925 126.891 45.5391C126.87 45.7512 126.809 45.8983 126.728 45.8983C126.606 45.8983 126.565 45.7937 126.565 45.624C126.565 45.3499 126.524 45.0971 126.463 44.9289C126.32 44.4427 125.891 44.2323 124.992 44.1474C124.646 44.105 122.418 44.0838 122.192 44.0838C122.112 44.0838 122.071 44.1474 122.071 44.2959V50.119C122.071 50.266 122.092 50.3296 122.192 50.3296C122.461 50.3296 124.973 50.3296 125.443 50.2872C125.995 50.2448 126.26 50.1811 126.463 49.9283C126.565 49.8025 126.627 49.7176 126.709 49.7176C126.769 49.7176 126.81 49.7601 126.81 49.8859C126.81 50.0129 126.709 50.372 126.647 51.0686C126.586 51.7213 126.586 52.2075 126.565 52.5028C126.545 52.7134 126.504 52.8195 126.421 52.8195C126.3 52.8195 126.278 52.6498 126.278 52.4815C126.278 52.2909 126.257 52.0802 126.196 51.891C126.113 51.5745 125.869 51.279 125.134 51.1942C124.583 51.1308 122.557 51.0884 122.213 51.0884C122.11 51.0884 122.068 51.152 122.068 51.2366V53.0935C122.068 53.8113 122.047 56.2587 122.068 56.701C122.109 57.5658 122.23 58.0308 122.744 58.2412C123.09 58.3912 123.641 58.4321 124.437 58.4321C125.05 58.4321 125.725 58.4094 126.276 58.2412C126.93 58.0308 127.156 57.587 127.318 56.6798C127.359 56.4482 127.401 56.3633 127.502 56.3633C127.624 56.3633 127.624 56.5328 127.624 56.6798C127.624 56.8495 127.463 58.2836 127.359 58.7259C127.216 59.2757 127.052 59.2757 126.256 59.2757C124.744 59.2757 124.069 59.2333 123.273 59.2121C122.456 59.1894 121.516 59.1484 120.718 59.1484C120.229 59.1484 119.739 59.2333 119.209 59.2121C118.984 59.2121 118.881 59.1697 118.881 59.0424C118.881 58.9802 118.982 58.9378 119.105 58.9166C119.309 58.8954 119.432 58.8954 119.575 58.8532C120.004 58.7486 120.27 58.4519 120.311 56.8707C120.331 56.0466 120.35 54.9714 120.35 53.0935V49.38H120.353ZM134.686 56.7222C137.219 53.5373 142.49 46.7855 144.493 44.2535C145.25 43.3038 145.575 42.9661 145.82 42.9661C146.025 42.9661 146.127 43.1356 146.127 44.9713C146.127 48.9165 146.127 52.6725 146.188 56.6176C146.209 58.1578 146.371 58.7274 147.025 58.832C147.127 58.8547 147.493 58.8954 147.823 58.9166C148.068 58.9378 148.13 59.0014 148.13 59.0651C148.13 59.1909 148.046 59.2136 147.823 59.2136C147.087 59.2136 145.288 59.1499 144.962 59.1499C144.513 59.1499 143.859 59.2136 143.123 59.2136C142.878 59.2136 142.818 59.1726 142.818 59.0863C142.818 58.9817 142.858 58.9378 143.123 58.9183C143.306 58.8971 143.532 58.8759 143.716 58.8335C144.307 58.7077 144.39 57.8216 144.411 56.239C144.472 52.7785 144.452 49.2556 144.493 45.6467C143.43 47.0189 134.891 57.9474 134.032 58.9183C133.603 59.4028 133.378 59.5088 133.276 59.5088C133.07 59.5088 133.009 59.3423 133.009 58.4972C133.009 55.0153 133.07 50.2675 133.009 46.2162C132.988 43.8961 132.764 43.7476 132.112 43.6218C131.844 43.5793 131.622 43.5793 131.457 43.5581C131.295 43.5372 131.233 43.4947 131.233 43.4114C131.233 43.2629 131.418 43.2629 131.642 43.2629C132.276 43.2629 133.562 43.3265 133.889 43.3265C134.541 43.3265 135.361 43.2629 135.932 43.2629C136.178 43.2629 136.279 43.3053 136.279 43.3901C136.279 43.4735 136.238 43.5372 136.014 43.5581C135.769 43.5793 135.668 43.5793 135.483 43.6218C134.911 43.7476 134.767 43.9807 134.725 45.7739L134.686 56.7222ZM136.341 39.6115C136.545 39.3162 136.913 38.9997 137.015 38.9997C137.075 38.9997 137.117 39.0209 137.137 39.1268C137.281 39.8431 138.262 40.7715 140.223 40.7715C141.715 40.7715 142.676 40.2868 143.534 39.2101C143.695 39.0209 143.717 39.0209 143.799 39.0209C143.881 39.0209 143.902 39.1692 143.779 39.3374C142.79 40.8112 141.162 41.6872 139.426 41.6788C138.608 41.6788 137.649 41.5105 136.873 40.92C136.464 40.5823 136.238 40.2234 136.238 39.9067C136.243 39.7999 136.279 39.6971 136.341 39.6115ZM153.563 57.2296C151.582 55.3939 151.091 52.9889 151.091 50.9838C151.091 49.5709 151.561 47.1022 153.38 45.2241C154.604 43.958 156.465 42.9676 159.611 42.9676C160.429 42.9676 161.571 43.0298 162.574 43.2204C163.35 43.3675 163.984 43.4311 164.741 43.5354C164.884 43.5566 164.924 43.6415 164.924 43.7688C164.924 43.9368 164.862 44.1898 164.823 44.9501C164.781 45.6467 164.781 46.8067 164.761 47.1234C164.741 47.4399 164.701 47.5655 164.578 47.5655C164.434 47.5655 164.414 47.4187 164.414 47.1234C164.414 46.2996 164.088 45.4348 163.555 44.9713C162.841 44.3381 161.266 43.7688 159.47 43.7688C156.753 43.7688 155.487 44.5912 154.771 45.3075C153.28 46.7855 152.932 48.6636 152.932 50.8158C152.932 54.8458 155.936 58.5379 160.309 58.5379C161.84 58.5379 163.045 58.3473 163.862 57.4825C164.292 57.0175 164.557 56.0908 164.619 55.7104C164.66 55.4788 164.702 55.3939 164.824 55.3939C164.925 55.3939 164.968 55.5409 164.968 55.7104C164.968 55.8574 164.721 57.6929 164.517 58.4109C164.396 58.8108 164.355 58.8547 163.987 59.0212C163.17 59.3603 161.617 59.5059 160.31 59.5059C157.242 59.5073 155.178 58.7274 153.563 57.2296ZM172.391 50.7309C173.026 50.0978 175.804 47.081 177.05 45.7512C178.276 44.4442 178.358 44.2323 178.358 43.9792C178.358 43.8021 178.252 43.643 178.093 43.5779C177.949 43.5142 177.909 43.4735 177.909 43.3887C177.909 43.3038 178.031 43.2614 178.214 43.2614C178.807 43.2614 178.745 43.325 179.44 43.325C180.074 43.325 181.279 43.2614 181.606 43.2614C181.892 43.2614 181.954 43.325 181.954 43.4099C181.954 43.4947 181.913 43.5372 181.729 43.5566C181.372 43.589 181.021 43.6746 180.687 43.8112C180.176 44.0216 179.788 44.2747 178.562 45.4984C176.764 47.2914 174.437 49.6752 173.905 50.2887C175.192 51.744 178.91 55.647 179.87 56.5752C181.545 58.2003 182.26 58.6637 183.24 58.8547C183.425 58.8954 183.629 58.9166 183.834 58.9166C183.995 58.9166 184.118 58.9575 184.118 59.0651C184.118 59.1726 184.036 59.2136 183.812 59.2136H182.301C180.523 59.2136 180.053 58.9817 179.093 58.2017C177.867 57.2099 174.19 53.1374 172.392 50.9216V53.0965C172.392 55.1214 172.392 56.7888 172.495 57.6734C172.555 58.2851 172.679 58.7501 173.291 58.8349C173.577 58.8759 173.987 58.9198 174.108 58.9198C174.292 58.9198 174.353 59.0046 174.353 59.068C174.353 59.1741 174.272 59.2165 174.047 59.2165C172.923 59.2165 171.636 59.1529 171.535 59.1529C171.433 59.1529 170.227 59.2165 169.613 59.2165C169.389 59.2165 169.286 59.1938 169.286 59.068C169.286 59.0046 169.326 58.9198 169.511 58.9198C169.633 58.9198 169.857 58.8986 170.042 58.8576C170.451 58.7713 170.573 58.2866 170.655 57.6749C170.757 56.7903 170.757 55.1228 170.757 53.098V49.3829C170.757 46.0919 170.757 45.5014 170.715 44.826C170.675 44.1079 170.47 43.7505 170.021 43.6445C169.779 43.5895 169.533 43.5608 169.285 43.5599C169.122 43.5599 169.061 43.5174 169.061 43.4341C169.061 43.3068 169.163 43.2643 169.388 43.2643C170.062 43.2643 171.432 43.328 171.533 43.328C171.634 43.328 172.922 43.2643 173.535 43.2643C173.761 43.2643 173.862 43.3068 173.862 43.4128C173.862 43.4977 173.822 43.5401 173.639 43.5599C173.415 43.5811 173.394 43.5811 173.187 43.6023C172.636 43.6657 172.475 44.0882 172.432 44.826C172.391 45.5014 172.391 46.0919 172.391 49.3829V50.7309ZM190.902 52.9875C190.8 52.9875 190.74 53.0511 190.698 53.1572L189.471 56.8917C189.286 57.4188 189.187 57.9247 189.187 58.3048C189.187 58.7274 189.574 58.9166 189.923 58.9166H190.106C190.31 58.9166 190.371 58.959 190.371 59.0439C190.371 59.1697 190.187 59.2121 190.003 59.2121C189.514 59.2121 188.697 59.1484 188.471 59.1484C188.246 59.1484 187.123 59.2121 186.163 59.2121C185.897 59.2121 185.774 59.1697 185.774 59.0439C185.774 58.959 185.877 58.9166 186.06 58.9166C186.204 58.9166 186.387 58.8954 186.551 58.8744C187.49 58.7486 187.899 57.9459 188.267 56.8917L192.904 43.7885C193.149 43.0934 193.231 42.9661 193.354 42.9661C193.476 42.9661 193.558 43.0722 193.803 43.7264C194.11 44.5275 197.318 53.2403 198.563 56.4482C199.299 58.3261 199.892 58.6637 200.32 58.791C200.626 58.8954 200.953 58.9166 201.118 58.9166C201.24 58.9166 201.342 58.9378 201.342 59.0439C201.342 59.1697 201.159 59.2121 200.933 59.2121C200.626 59.2121 199.135 59.2121 197.726 59.1697C197.336 59.1484 197.111 59.1484 197.111 59.0226C197.111 58.9363 197.173 58.8954 197.256 58.8727C197.378 58.832 197.501 58.6425 197.378 58.3034L195.479 53.1133C195.438 53.0284 195.395 52.986 195.294 52.986H190.902V52.9875ZM195.028 52.2287C195.13 52.2287 195.13 52.1651 195.111 52.0802L193.169 46.3842C193.068 46.0677 192.966 46.0677 192.863 46.3842L191.065 52.0802C191.025 52.1863 191.065 52.2287 191.127 52.2287H195.028ZM217.001 43.2629C217.227 43.2629 217.328 43.3038 217.328 43.4311C217.328 43.5159 217.246 43.5566 217.167 43.5566C217.022 43.5566 216.9 43.5793 216.655 43.6203C216.104 43.7264 215.941 44.0853 215.898 44.8228C215.857 45.4984 215.857 46.0889 215.857 49.3814V53.095C215.857 55.1199 215.857 56.7874 215.96 57.6734C216.02 58.2822 216.143 58.7486 216.756 58.8335C217.042 58.8759 217.472 58.9183 217.594 58.9183C217.778 58.9183 217.84 58.9817 217.84 59.0453C217.84 59.1499 217.756 59.2136 217.533 59.2136C216.407 59.2136 215.1 59.1499 214.998 59.1499C214.895 59.1499 213.65 59.2136 213.037 59.2136C212.811 59.2136 212.71 59.1726 212.71 59.0453C212.71 58.9817 212.748 58.9183 212.933 58.9183C213.055 58.9183 213.281 58.8971 213.464 58.8561C213.873 58.7698 213.996 58.2836 214.077 57.6749C214.18 56.7888 214.18 55.1214 214.18 53.1162V52.483C214.18 52.3575 214.138 52.3363 214.035 52.3363C213.156 52.3575 212.543 52.315 212.074 52.2938C212.012 52.2938 211.95 52.2938 211.87 52.3363C211.72 52.4216 211.588 52.5363 211.481 52.6739C211.091 53.0965 209.927 54.8685 209.397 55.6273C208.437 57.125 207.926 57.758 207.353 58.2836C206.658 58.941 205.759 59.2136 204.084 59.2136L203.081 59.1924C202.837 59.1924 202.715 59.1499 202.715 59.0226C202.715 58.9817 202.775 58.8971 203.042 58.8971C203.287 58.8971 203.388 58.8971 203.694 58.8759C204.614 58.791 205.206 58.4728 206.126 57.3145C206.883 56.3614 207.619 55.3902 208.333 54.4021C208.985 53.5373 209.742 52.4196 210.417 51.9334C208.353 51.0686 207.473 49.3814 207.473 47.7352C207.473 46.0889 208.311 44.8864 209.396 44.1489C210.213 43.5566 211.396 43.2629 212.829 43.2629C213.747 43.2629 214.483 43.3265 214.993 43.3265C215.243 43.3265 216.388 43.2629 217.001 43.2629ZM214.182 44.3381C214.182 44.2535 214.162 44.1898 214.059 44.1277C213.792 44.0216 213.631 44.0004 213.018 44.0004C210.749 44.0004 209.26 45.2878 209.26 47.7988C209.26 50.2038 211.057 51.5958 213.201 51.5958C213.669 51.5958 213.897 51.5745 214.059 51.5124C214.182 51.47 214.182 51.3215 214.182 51.2383V44.3381ZM41.6873 74.999V75.5064C41.6873 75.611 41.7489 75.6322 41.8105 75.6322H45.3653C45.4269 75.6322 45.5075 75.611 45.5075 75.5064C46.0794 71.7928 48.6958 68.7139 53.1904 68.7139C58.0929 68.7139 60.8702 72.9544 60.8702 76.6892C60.8702 81.584 57.949 85.2552 53.1493 85.2552C48.2456 85.2552 45.3448 81.119 45.4269 76.7089C45.4269 76.624 45.3448 76.5816 45.2832 76.5816H41.8105C41.7489 76.5816 41.6873 76.6043 41.6873 76.7089V78.8398C41.6873 80.8647 41.6873 82.5322 41.7901 83.4182C41.8517 84.0285 41.9734 84.4935 42.5863 84.5783C42.8724 84.6207 43.3019 84.6629 43.4237 84.6629C43.6085 84.6629 43.6686 84.7265 43.6686 84.7887C43.6686 84.8948 43.588 84.9584 43.3621 84.9584C42.2388 84.9584 40.9322 84.8948 40.8295 84.8948C40.7282 84.8948 39.5024 84.9584 38.8893 84.9584C38.6636 84.9584 38.5623 84.916 38.5623 84.7887C38.5623 84.7265 38.602 84.6629 38.7866 84.6629C38.9083 84.6629 39.1343 84.6419 39.3176 84.5995C39.7267 84.5147 39.8485 84.03 39.9305 83.4197C40.0333 82.5337 40.0333 80.8647 40.0333 78.8413V75.1278C40.0333 71.8353 40.0333 71.2462 39.9921 70.5691C39.951 69.8528 39.7472 69.4939 39.2969 69.3893C39.09 69.335 38.8773 69.3064 38.6636 69.3045C38.5828 69.3045 38.5007 69.2623 38.5007 69.1774C38.5007 69.0516 38.602 69.0092 38.8277 69.0092C39.5024 69.0092 40.7282 69.0728 40.8295 69.0728C40.9322 69.0728 42.2181 69.0092 42.8312 69.0092C43.0555 69.0092 43.1583 69.0516 43.1583 69.1774C43.1583 69.2623 43.0777 69.3045 42.9954 69.3045C42.8517 69.3045 42.7299 69.3257 42.4838 69.3681C41.9323 69.4727 41.7696 69.8316 41.7285 70.5691C41.6931 72.0454 41.6794 73.5222 41.6873 74.999ZM58.9096 77.2587C58.9096 72.5955 56.377 69.5151 52.944 69.5151C49.3086 69.5151 47.285 72.3426 47.285 76.353C47.285 81.416 49.9408 84.4328 53.4558 84.4328C55.723 84.4313 58.9096 83.0803 58.9096 77.2587ZM66.258 75.1263C66.258 71.8353 66.258 71.2447 66.2171 70.5691C66.176 69.8498 66.0133 69.5136 65.3386 69.3666C65.1093 69.3237 64.8766 69.3022 64.6434 69.303C64.5614 69.303 64.4808 69.2606 64.4808 69.1759C64.4808 69.0501 64.5818 69.0077 64.8078 69.0077C65.7272 69.0077 66.9532 69.0714 67.1161 69.0714C67.5663 69.0714 68.7497 69.0077 69.6896 69.0077C72.2443 69.0077 73.1623 69.8937 73.4907 70.2102C73.9395 70.6525 74.5115 71.6022 74.5115 72.9741C74.5115 75.717 72.3865 77.7417 69.4858 77.7417C69.3833 77.7417 69.1588 77.7417 69.0562 77.719C68.9549 77.719 68.8317 77.6783 68.8317 77.5722C68.8317 77.4025 68.9549 77.3828 69.3833 77.3828C71.3643 77.3828 72.9188 75.9896 72.9188 73.7738C72.9188 73.2452 72.8572 71.8338 71.7734 70.6934C70.6913 69.5546 69.4449 69.6392 68.9754 69.6392C68.6279 69.6392 68.2805 69.6816 68.0957 69.765C67.9739 69.8074 67.9328 69.9559 67.9328 70.1663V78.8398C67.9328 80.8662 67.9328 82.5322 68.0355 83.4165C68.0957 84.0285 68.2189 84.4935 68.8317 84.5783C69.1176 84.619 69.5678 84.6629 69.7512 84.6629C69.8744 84.6629 69.9155 84.7265 69.9155 84.7887C69.9155 84.8948 69.8128 84.9584 69.5885 84.9584C68.4636 84.9584 67.176 84.8948 67.0749 84.8948C67.0133 84.8948 65.7272 84.9584 65.1143 84.9584C64.8884 84.9584 64.7873 84.916 64.7873 84.7887C64.7873 84.7265 64.8268 84.6629 64.95 84.6629C65.1333 84.6629 65.3797 84.6207 65.5631 84.5783C65.9722 84.4935 66.0749 84.03 66.1555 83.4165C66.258 82.5307 66.258 80.8647 66.258 78.8398V75.1263ZM80.8743 82.47C83.4086 79.2836 88.679 72.5318 90.6807 70.0013C91.4375 69.0516 91.7631 68.7139 92.0092 68.7139C92.2133 68.7139 92.3158 68.8804 92.3158 70.7161C92.3158 74.6613 92.3158 78.4173 92.3759 82.3625C92.3964 83.9027 92.5607 84.4722 93.2148 84.5783C93.3161 84.5995 93.684 84.6419 94.011 84.6629C94.2559 84.6858 94.3175 84.7478 94.3175 84.8114C94.3175 84.9387 94.2355 84.9599 94.011 84.9599C93.2764 84.9599 91.477 84.8963 91.15 84.8963C90.7012 84.8963 90.0472 84.9599 89.3111 84.9599C89.0661 84.9599 89.0045 84.9175 89.0045 84.8326C89.0045 84.728 89.0471 84.6859 89.3111 84.6646C89.4959 84.6434 89.7202 84.6237 89.905 84.5798C90.4974 84.454 90.578 83.568 90.5987 81.9853C90.6603 78.5249 90.6396 75.0005 90.6807 71.393C89.6174 72.7652 81.0784 83.6938 80.2203 84.6646C79.7922 85.1491 79.5663 85.2566 79.4652 85.2566C79.2597 85.2566 79.1998 85.0887 79.1998 84.2436C79.1998 80.7616 79.2599 76.0138 79.1998 71.964C79.1791 69.6439 78.9534 69.4954 78.3008 69.3698C78.034 69.3274 77.8095 69.3274 77.6468 69.3062C77.4825 69.285 77.4223 69.2425 77.4223 69.1577C77.4223 69.0092 77.6057 69.0092 77.8299 69.0092C78.4635 69.0092 79.7511 69.0728 80.0781 69.0728C80.7307 69.0728 81.549 69.0092 82.121 69.0092C82.3657 69.0092 82.467 69.0516 82.467 69.135C82.467 69.2213 82.4275 69.285 82.203 69.3045C81.9566 69.3257 81.8556 69.3257 81.6708 69.3681C81.0988 69.4939 80.9566 69.7255 80.9155 71.5203L80.8743 82.47ZM101.763 84.8963C100.21 84.8963 99.638 84.9175 99.1069 84.9599C98.0439 85.0235 97.7183 85.381 97.6567 86.3304C97.6362 86.5213 97.5951 86.6878 97.4719 86.6878C97.3913 86.6878 97.3297 86.6047 97.3297 86.3092C97.3092 84.9796 97.2269 84.2828 97.2065 83.9663C97.186 83.7998 97.2269 83.7771 97.3297 83.7771C97.6978 83.839 98.412 83.8829 99.1481 83.8829C99.311 83.8829 99.3519 83.839 99.4751 83.6089L104.378 69.5967C104.643 68.8592 104.766 68.711 104.888 68.711C105.011 68.711 105.093 68.8592 105.297 69.3864C105.686 70.3784 108.934 79.2185 110.65 83.6484C110.732 83.8178 110.793 83.8815 110.977 83.8815C111.386 83.8815 112.713 83.8376 113.122 83.7544C113.244 83.7332 113.285 83.7544 113.244 83.9224C113.095 84.729 113.013 85.5474 112.999 86.3684C112.999 86.582 112.937 86.6848 112.857 86.6848C112.734 86.6848 112.692 86.5593 112.672 86.3684C112.612 85.4414 112.223 84.9991 111.345 84.9357C110.751 84.8933 109.506 84.8933 108.668 84.8933H101.763V84.8963ZM106.258 83.989C108.035 83.989 108.463 83.9466 108.648 83.9254C108.73 83.9027 108.77 83.8635 108.708 83.7362C107.544 80.6134 106.074 76.0759 104.561 71.9823C104.52 71.8777 104.48 71.8777 104.439 71.9611L100.926 82.6578C100.741 83.1864 100.557 83.6484 100.557 83.8196C100.557 83.9027 100.619 83.9027 100.681 83.9239C101.028 83.9648 101.641 83.9875 102.845 83.9875H106.258V83.989ZM118.815 82.47C121.349 79.2836 126.62 72.5318 128.621 70.0013C129.379 69.0516 129.704 68.7139 129.95 68.7139C130.154 68.7139 130.256 68.8804 130.256 70.7161C130.256 74.6613 130.256 78.4173 130.316 82.3625C130.337 83.9027 130.501 84.4722 131.155 84.5783C131.255 84.5995 131.625 84.6419 131.952 84.6629C132.196 84.6858 132.258 84.7478 132.258 84.8114C132.258 84.9387 132.176 84.9599 131.952 84.9599C131.217 84.9599 129.416 84.8963 129.09 84.8963C128.642 84.8963 127.988 84.9599 127.252 84.9599C127.007 84.9599 126.945 84.9175 126.945 84.8326C126.945 84.728 126.988 84.6859 127.252 84.6646C127.436 84.6434 127.661 84.6237 127.846 84.5798C128.436 84.454 128.519 83.568 128.539 81.9853C128.601 78.5249 128.58 75.0005 128.621 71.393C127.558 72.7652 119.019 83.6938 118.161 84.6646C117.733 85.1491 117.507 85.2566 117.406 85.2566C117.199 85.2566 117.139 85.0887 117.139 84.2436C117.139 80.7616 117.199 76.0138 117.139 71.964C117.118 69.6439 116.893 69.4954 116.241 69.3698C115.973 69.3274 115.75 69.3274 115.587 69.3062C115.423 69.285 115.363 69.2425 115.363 69.1577C115.363 69.0092 115.546 69.0092 115.77 69.0092C116.404 69.0092 117.692 69.0728 118.019 69.0728C118.671 69.0728 119.49 69.0092 120.062 69.0092C120.306 69.0092 120.408 69.0516 120.408 69.135C120.408 69.2213 120.368 69.285 120.144 69.3045C119.897 69.3257 119.796 69.3257 119.611 69.3681C119.039 69.4939 118.897 69.7255 118.856 71.5203L118.815 82.47ZM145.427 78.8413C145.427 80.8662 145.427 82.5337 145.528 83.4197C145.59 84.03 145.713 84.4949 146.326 84.5798C146.612 84.6222 147.061 84.6646 147.245 84.6646C147.367 84.6646 147.408 84.728 147.408 84.7902C147.408 84.8963 147.307 84.9599 147.08 84.9599C145.956 84.9599 144.669 84.8963 144.568 84.8963C144.466 84.8963 143.179 84.9599 142.566 84.9599C142.341 84.9599 142.239 84.9175 142.239 84.7902C142.239 84.728 142.278 84.6646 142.402 84.6646C142.585 84.6646 142.83 84.6237 143.015 84.5798C143.424 84.4949 143.525 84.0314 143.607 83.4197C143.708 82.5337 143.708 80.8647 143.708 78.7777V76.921C142.768 77.3633 141.563 77.5313 140.46 77.5313C138.703 77.5313 137.457 77.0466 136.659 76.076C136.251 75.5686 135.801 74.8522 135.801 72.7834C135.801 71.8762 135.822 71.1599 135.781 70.4843C135.739 69.6831 135.597 69.4303 135.044 69.3439C134.84 69.3227 134.738 69.3227 134.515 69.303C134.27 69.2606 134.27 69.1759 134.27 69.1335C134.27 69.0304 134.412 69.0077 134.637 69.0077C135.393 69.0077 136.313 69.0714 136.597 69.0714C136.904 69.0714 138.171 69.0077 138.621 69.0077C138.866 69.0077 138.947 69.0501 138.947 69.1562C138.947 69.1972 138.887 69.2835 138.602 69.3045C137.906 69.3681 137.58 69.5151 137.539 70.5918C137.517 71.3293 137.517 72.3002 137.517 73.0831C137.517 75.5518 138.907 76.6906 141.073 76.6906C141.931 76.6906 142.911 76.6273 143.708 76.2681V74.7718C143.708 71.7551 143.708 71.2477 143.669 70.5738C143.628 69.8558 143.464 69.5181 142.789 69.3713C142.58 69.3311 142.368 69.3096 142.155 69.3077C142.01 69.3077 141.931 69.2652 141.931 69.1804C141.931 69.0546 142.032 69.0124 142.257 69.0124C143.177 69.0124 144.465 69.0758 144.566 69.0758C144.667 69.0758 145.955 69.0124 146.568 69.0124C146.792 69.0124 146.895 69.0546 146.895 69.1804C146.895 69.2652 146.813 69.3077 146.734 69.3077C146.589 69.3077 146.465 69.3289 146.22 69.3713C145.669 69.4756 145.508 69.8345 145.465 70.5738C145.424 71.2477 145.424 71.8399 145.424 75.1307V78.8413H145.427ZM153.303 75.1263C153.303 71.8353 153.303 71.2447 153.264 70.5691C153.223 69.8498 153.058 69.5136 152.384 69.3666C152.24 69.3242 151.976 69.3242 151.793 69.303C151.649 69.2803 151.526 69.2606 151.526 69.1759C151.526 69.0501 151.627 69.0077 151.855 69.0077C152.322 69.0077 152.874 69.0077 154.161 69.0714C154.307 69.0714 158.37 69.0714 158.839 69.0501C159.29 69.0274 159.658 68.9865 159.779 68.9229C159.903 68.8592 159.942 68.838 160.004 68.838C160.065 68.838 160.086 68.9229 160.086 69.0275C160.086 69.1759 159.964 69.4303 159.925 70.0178C159.903 70.3345 159.884 70.7373 159.841 71.284C159.82 71.4961 159.759 71.6429 159.678 71.6429C159.557 71.6429 159.515 71.5385 159.515 71.3673C159.515 71.0933 159.474 70.8402 159.413 70.6722C159.27 70.1875 158.841 69.9754 157.942 69.8908C157.596 69.8484 155.368 69.8271 155.142 69.8271C155.062 69.8271 155.021 69.8908 155.021 70.039V75.8638C155.021 76.0108 155.043 76.0745 155.142 76.0745C155.411 76.0745 157.923 76.0745 158.394 76.032C158.945 75.9911 159.21 75.9275 159.413 75.6746C159.515 75.5488 159.577 75.4625 159.659 75.4625C159.719 75.4625 159.76 75.5049 159.76 75.6307C159.76 75.7578 159.659 76.1166 159.597 76.8135C159.536 77.4662 159.536 77.9523 159.515 78.2461C159.495 78.4583 159.454 78.5626 159.372 78.5626C159.25 78.5626 159.228 78.3946 159.228 78.2249C159.228 78.034 159.207 77.8236 159.146 77.6344C159.064 77.3177 158.819 77.0224 158.084 76.9376C157.533 76.8739 155.508 76.8315 155.163 76.8315C155.06 76.8315 155.018 76.8951 155.018 76.98V78.8384C155.018 79.5562 154.997 82.0036 155.018 82.4459C155.059 83.3107 155.181 83.7757 155.692 83.9861C156.04 84.136 156.591 84.177 157.388 84.177C158.001 84.177 158.675 84.1543 159.227 83.9861C159.881 83.7757 160.106 83.3319 160.268 82.4261C160.309 82.1945 160.351 82.1097 160.452 82.1097C160.574 82.1097 160.574 82.2776 160.574 82.4261C160.574 82.5941 160.413 84.03 160.309 84.4722C160.167 85.022 160.002 85.022 159.206 85.022C157.694 85.022 157.019 84.9796 156.223 84.9584C155.406 84.9357 154.466 84.8948 153.669 84.8948C153.179 84.8948 152.689 84.9796 152.159 84.9584C151.934 84.9584 151.831 84.916 151.831 84.7887C151.831 84.7265 151.932 84.6841 152.056 84.6629C152.259 84.6419 152.383 84.6419 152.525 84.5995C152.954 84.4949 153.22 84.1982 153.261 82.6171C153.281 81.7929 153.301 80.7177 153.301 78.8398V75.1263H153.303ZM166.723 82.976C164.742 81.1403 164.251 78.7353 164.251 76.7301C164.251 75.3172 164.721 72.8486 166.54 70.9704C167.764 69.7043 169.625 68.7139 172.771 68.7139C173.589 68.7139 174.732 68.7761 175.734 68.9668C176.51 69.1138 177.144 69.1774 177.901 69.2818C178.044 69.303 178.084 69.3878 178.084 69.5151C178.084 69.6816 178.022 69.9347 177.983 70.6949C177.942 71.3915 177.942 72.5531 177.921 72.8698C177.901 73.1862 177.861 73.3118 177.738 73.3118C177.594 73.3118 177.574 73.1636 177.574 72.8698C177.574 72.0459 177.248 71.1811 176.716 70.7176C176.002 70.0847 174.426 69.5151 172.63 69.5151C169.913 69.5151 168.647 70.3375 167.931 71.0538C166.44 72.5318 166.093 74.41 166.093 76.5621C166.093 80.5922 169.096 84.286 173.469 84.286C175 84.286 176.205 84.0951 177.022 83.2303C177.452 82.7653 177.717 81.8386 177.779 81.4585C177.82 81.2266 177.862 81.1417 177.984 81.1417C178.085 81.1417 178.128 81.2888 178.128 81.4585C178.128 81.6052 177.882 83.4409 177.678 84.1587C177.556 84.5586 177.515 84.6025 177.147 84.769C176.33 85.1084 174.777 85.2537 173.47 85.2537C170.402 85.2537 168.339 84.4737 166.723 82.976ZM185.551 76.4773C186.186 75.8441 188.964 72.8273 190.21 71.4976C191.436 70.1905 191.518 69.9786 191.518 69.7255C191.518 69.5484 191.412 69.3893 191.253 69.3242C191.109 69.2606 191.069 69.2198 191.069 69.135C191.069 69.0487 191.191 69.0077 191.374 69.0077C191.967 69.0077 191.905 69.0714 192.6 69.0714C193.234 69.0714 194.439 69.0077 194.766 69.0077C195.052 69.0077 195.114 69.0714 195.114 69.1562C195.114 69.2411 195.073 69.2835 194.89 69.303C194.532 69.3353 194.181 69.4209 193.847 69.5575C193.337 69.7694 192.948 70.0225 191.722 71.2447C189.924 73.0378 187.597 75.4215 187.065 76.035C188.352 77.4903 192.07 81.3933 193.03 82.3215C194.705 83.9451 195.42 84.4101 196.4 84.601C196.585 84.6419 196.789 84.6629 196.994 84.6629C197.155 84.6629 197.279 84.7038 197.279 84.8114C197.279 84.9189 197.196 84.9599 196.972 84.9599H195.462C193.683 84.9599 193.213 84.728 192.253 83.9466C191.027 82.9562 187.35 78.8823 185.553 76.6665V78.8413C185.553 80.8677 185.553 82.5337 185.655 83.4182C185.715 84.03 185.839 84.4949 186.452 84.5798C186.738 84.6207 187.147 84.6646 187.268 84.6646C187.452 84.6646 187.513 84.7492 187.513 84.8129C187.513 84.9189 187.433 84.9614 187.207 84.9614C186.083 84.9614 184.796 84.8977 184.695 84.8977C184.594 84.8977 183.387 84.9614 182.774 84.9614C182.549 84.9614 182.447 84.9387 182.447 84.8129C182.447 84.7492 182.486 84.6646 182.671 84.6646C182.793 84.6646 183.017 84.6434 183.202 84.6025C183.611 84.5161 183.733 84.0314 183.815 83.4197C183.917 82.5352 183.917 80.8677 183.917 78.8428V75.1292C183.917 71.8367 183.917 71.2477 183.875 70.5706C183.835 69.8528 183.63 69.4954 183.181 69.3908C182.939 69.3353 182.693 69.3064 182.445 69.3045C182.282 69.3045 182.221 69.2638 182.221 69.1789C182.221 69.0516 182.323 69.0107 182.548 69.0107C183.222 69.0107 184.592 69.0743 184.693 69.0743C184.794 69.0743 186.082 69.0107 186.695 69.0107C186.921 69.0107 187.022 69.0516 187.022 69.1592C187.022 69.244 186.982 69.2864 186.799 69.3062C186.575 69.3289 186.554 69.3289 186.347 69.3486C185.796 69.412 185.635 69.8345 185.592 70.5723C185.551 71.2477 185.551 71.8382 185.551 75.1307V76.4773ZM204.063 78.7338C203.96 78.7338 203.9 78.7974 203.857 78.9035L202.631 82.638C202.446 83.1651 202.347 83.6711 202.347 84.0512C202.347 84.4737 202.734 84.6629 203.083 84.6629H203.266C203.47 84.6629 203.531 84.7053 203.531 84.7902C203.531 84.916 203.347 84.9584 203.164 84.9584C202.674 84.9584 201.857 84.8948 201.631 84.8948C201.406 84.8948 200.283 84.9584 199.323 84.9584C199.057 84.9584 198.934 84.916 198.934 84.7902C198.934 84.7053 199.037 84.6629 199.22 84.6629C199.364 84.6629 199.547 84.6417 199.711 84.6207C200.65 84.4949 201.059 83.6938 201.427 82.638L206.064 69.5348C206.309 68.8397 206.391 68.7125 206.514 68.7125C206.636 68.7125 206.718 68.8185 206.963 69.4727C207.27 70.2739 210.478 78.9866 211.723 82.1945C212.459 84.0724 213.052 84.4101 213.48 84.5374C213.787 84.6419 214.114 84.6629 214.278 84.6629C214.4 84.6629 214.502 84.6841 214.502 84.7902C214.502 84.916 214.319 84.9584 214.093 84.9584C213.787 84.9584 212.295 84.9584 210.886 84.916C210.496 84.8948 210.271 84.8948 210.271 84.769C210.271 84.6826 210.333 84.6417 210.417 84.619C210.538 84.5783 210.661 84.3889 210.538 84.0497L208.639 78.8596C208.598 78.7747 208.556 78.7323 208.454 78.7323H204.063V78.7338ZM208.189 77.975C208.292 77.975 208.292 77.9114 208.273 77.8265L206.331 72.129C206.23 71.8126 206.127 71.8126 206.025 72.129L204.225 77.8265C204.187 77.9311 204.225 77.975 204.288 77.975H208.189ZM230.161 69.0077C230.387 69.0077 230.488 69.0487 230.488 69.1759C230.488 69.2606 230.406 69.3015 230.327 69.3015C230.182 69.3015 230.06 69.3242 229.815 69.3651C229.264 69.4712 229.101 69.8301 229.058 70.5676C229.017 71.243 229.017 71.8338 229.017 75.1263V78.8398C229.017 80.8647 229.017 82.5322 229.12 83.4182C229.18 84.027 229.303 84.4935 229.916 84.5783C230.202 84.6207 230.632 84.6614 230.754 84.6614C230.938 84.6614 231 84.7265 231 84.7902C231 84.8948 230.916 84.9584 230.693 84.9584C229.567 84.9584 228.261 84.8948 228.158 84.8948C228.055 84.8948 226.81 84.9584 226.197 84.9584C225.971 84.9584 225.87 84.9175 225.87 84.7902C225.87 84.7265 225.908 84.6614 226.093 84.6614C226.215 84.6614 226.441 84.6419 226.624 84.601C227.033 84.5147 227.157 84.0285 227.237 83.4197C227.34 82.5337 227.34 80.8647 227.34 78.8611V78.2279C227.34 78.1023 227.299 78.0796 227.195 78.0796C226.316 78.1023 225.703 78.0584 225.234 78.0387C225.172 78.0387 225.111 78.0387 225.03 78.0796C224.88 78.165 224.748 78.2804 224.641 78.4188C224.251 78.8399 223.087 80.6116 222.557 81.3704C221.597 82.8684 221.087 83.5014 220.513 84.0285C219.818 84.6859 218.919 84.9584 217.244 84.9584L216.242 84.9372C215.997 84.9372 215.875 84.8948 215.875 84.7675C215.875 84.7265 215.935 84.6419 216.202 84.6419C216.447 84.6419 216.548 84.6417 216.854 84.6207C217.774 84.5359 218.366 84.2177 219.286 83.0591C220.043 82.1062 220.779 81.1351 221.493 80.1469C222.145 79.2821 222.902 78.1642 223.577 77.6783C221.513 76.8135 220.633 75.1248 220.633 73.48C220.633 71.8353 221.471 70.6313 222.556 69.8937C223.373 69.3015 224.556 69.0077 225.989 69.0077C226.907 69.0077 227.643 69.0714 228.154 69.0714C228.404 69.0714 229.548 69.0077 230.161 69.0077ZM227.343 70.0829C227.343 69.9983 227.321 69.9347 227.22 69.8725C226.952 69.7665 226.791 69.7452 226.178 69.7452C223.91 69.7452 222.42 71.0341 222.42 73.5437C222.42 75.9487 224.218 77.3404 226.361 77.3404C226.829 77.3404 227.057 77.3191 227.22 77.2572C227.342 77.2148 227.343 77.0663 227.343 76.9829V70.0829ZM40.1755 108.722C38.1942 106.887 37.7031 104.482 37.7031 102.476C37.7031 101.064 38.1737 98.5949 39.9921 96.7168C41.2167 95.4506 43.0777 94.4603 46.2231 94.4603C47.04 94.4603 48.184 94.5224 49.1854 94.7131C49.9612 94.8601 50.5948 94.9237 51.3513 95.0281C51.4937 95.0493 51.5347 95.1342 51.5347 95.2614C51.5347 95.4279 51.4731 95.681 51.4321 96.4412C51.391 97.1378 51.391 98.2994 51.3706 98.6161C51.3513 98.9326 51.3104 99.0581 51.1872 99.0581C51.045 99.0581 51.0228 98.9099 51.0228 98.6161C51.0228 97.7922 50.6973 96.9274 50.165 96.4639C49.4508 95.831 47.8774 95.2614 46.0794 95.2614C43.3621 95.2614 42.0966 96.0838 41.381 96.8001C39.8894 98.2782 39.5419 100.156 39.5419 102.308C39.5419 106.338 42.5452 110.032 46.9183 110.032C48.4494 110.032 49.6547 109.841 50.4716 108.977C50.9011 108.512 51.1667 107.585 51.2283 107.205C51.2692 106.973 51.3104 106.888 51.4321 106.888C51.5347 106.888 51.5758 107.035 51.5758 107.205C51.5758 107.352 51.3294 109.187 51.1256 109.905C51.0038 110.305 50.9627 110.349 50.5948 110.515C49.7779 110.855 48.2249 111 46.9183 111C43.8534 111 41.7915 110.22 40.1755 108.722ZM57.8758 108.385C57.6925 108.911 57.5897 109.419 57.5897 109.799C57.5897 110.22 57.9769 110.409 58.3244 110.409H58.5092C58.7132 110.409 58.7746 110.45 58.7746 110.537C58.7746 110.664 58.59 110.705 58.4067 110.705C57.9168 110.705 57.1001 110.641 56.8741 110.641C56.6499 110.641 55.5264 110.705 54.5658 110.705C54.3004 110.705 54.1789 110.664 54.1789 110.537C54.1789 110.45 54.2799 110.409 54.4633 110.409C54.607 110.409 54.7903 110.388 54.9544 110.369C55.8931 110.241 56.3022 109.44 56.6703 108.385L61.3074 95.2827C61.5521 94.5861 61.6344 94.4603 61.7576 94.4603C61.8791 94.4603 61.9614 94.5648 62.2061 95.219C62.5127 96.0202 65.7214 104.735 66.9664 107.942C67.7025 109.817 68.2949 110.156 68.7232 110.284C69.0298 110.388 69.3568 110.409 69.5209 110.409C69.6426 110.409 69.7454 110.432 69.7454 110.537C69.7454 110.664 69.562 110.705 69.3363 110.705C69.0298 110.705 67.5384 110.705 66.129 110.664C65.7404 110.641 65.5162 110.641 65.5162 110.514C65.5162 110.43 65.5778 110.388 65.6598 110.367C65.7816 110.325 65.9048 110.134 65.7816 109.798L61.5521 97.9814C61.451 97.6649 61.3483 97.6649 61.2458 97.9814L57.8758 108.385ZM73.0903 110.579C73.0903 110.494 73.1916 110.432 73.3969 110.432C73.4982 110.432 73.6211 110.432 73.9072 110.409C74.8678 110.325 75.5218 109.902 76.3592 108.553C76.89 107.645 77.135 107.18 77.3607 106.675C77.462 106.464 77.4413 106.358 77.3388 106.126C76.6862 104.775 73.2737 98.2979 72.3747 96.7577C71.6196 95.4067 71.4363 95.1342 70.2497 95.0493C70.0871 95.0281 70.005 94.9647 70.005 94.8798C70.005 94.8177 70.0666 94.754 70.3113 94.754C70.9245 94.754 71.8439 94.8177 72.4363 94.8177C72.6608 94.8177 73.6623 94.754 74.3163 94.754C74.5201 94.754 74.6024 94.7965 74.6024 94.8601C74.6024 94.9435 74.5613 95.0069 74.2959 95.0493C73.9484 95.0902 73.7443 95.2387 73.7443 95.4067C73.7443 95.5749 73.9072 95.8914 74.092 96.2518C74.5201 97.0742 77.9928 103.805 78.4226 104.586C79.6888 101.983 80.928 99.3667 82.14 96.7365C82.3657 96.2306 82.549 95.7022 82.549 95.4294C82.549 95.2599 82.4465 95.1341 82.2016 95.0902C81.9978 95.0493 81.895 94.9647 81.895 94.8784C81.895 94.795 81.9978 94.7753 82.222 94.7753C82.5902 94.7753 82.9978 94.8162 83.4687 94.8162C84.02 94.8162 84.9601 94.7526 85.347 94.7526C85.573 94.7526 85.6536 94.795 85.6536 94.8784C85.6536 94.9842 85.5318 95.0281 85.328 95.0478C85.079 95.0745 84.8326 95.1238 84.592 95.1948C84.02 95.4067 83.775 95.7447 83.3455 96.6304C81.794 99.7942 78.8316 105.892 77.7683 108.171C77.4825 108.804 76.9516 109.881 76.8489 110.45C76.8284 110.597 76.7873 110.64 76.7067 110.661C76.5014 110.703 74.3163 110.724 73.4173 110.724C73.2121 110.726 73.0903 110.706 73.0903 110.579ZM99.0646 102.246C99.7802 101.59 102.517 98.6992 103.743 97.3712C105.01 96.0005 105.152 95.6613 105.152 95.4311C105.152 95.2629 105.071 95.1356 104.682 95.051C104.479 95.0086 104.397 94.9647 104.397 94.8828C104.397 94.7965 104.499 94.7555 104.682 94.7555C105.193 94.7555 105.684 94.8192 106.398 94.8192C107.032 94.8192 108.095 94.7555 108.443 94.7555C108.708 94.7555 108.789 94.7965 108.789 94.904C108.789 94.9903 108.687 95.0298 108.421 95.072C108.114 95.1144 107.768 95.1781 107.482 95.3053C106.91 95.5157 106.48 95.7688 105.254 97.035C103.681 98.6585 101.005 101.381 100.494 101.951C101.251 102.837 104.969 107.12 106.215 108.322C107.585 109.631 108.32 110.137 109.075 110.305C109.34 110.369 109.667 110.391 109.852 110.391C110.035 110.391 110.138 110.432 110.138 110.54C110.138 110.667 110.015 110.708 109.79 110.708H108.258C106.398 110.708 105.888 110.35 104.703 109.127C103.15 107.502 101.23 105.118 99.575 103.111C99.3916 102.881 99.2082 102.71 99.0646 102.52V104.588C99.0646 106.614 99.0646 108.28 99.1671 109.165C99.2272 109.776 99.3505 110.262 99.9636 110.347C100.311 110.388 100.597 110.409 100.78 110.409C100.964 110.409 101.047 110.473 101.047 110.537C101.047 110.641 100.964 110.705 100.741 110.705C99.6159 110.705 98.349 110.641 98.2477 110.641C98.1452 110.641 96.859 110.705 96.2459 110.705C96.0202 110.705 95.9586 110.664 95.9586 110.537C95.9586 110.473 96.0611 110.409 96.1843 110.409C96.3677 110.409 96.5306 110.388 96.7151 110.347C97.1244 110.261 97.2666 109.925 97.3282 109.165C97.3884 108.279 97.431 106.613 97.431 104.588V102.52C97.2871 102.731 97.1244 102.922 97.0012 103.069C95.6123 104.756 93.426 107.414 91.7922 109.061C90.6059 110.262 90.1162 110.706 88.2976 110.706H86.7051C86.5203 110.706 86.3986 110.665 86.3986 110.558C86.3986 110.453 86.4792 110.39 86.7051 110.39C86.9294 110.39 86.9705 110.367 87.3591 110.326C88.1349 110.222 89.0544 109.672 90.628 108.089C91.8935 106.802 94.5493 103.868 96.1022 102.075C95.6123 101.483 91.873 97.6664 91.2806 97.0335C90.0546 95.8098 89.6059 95.493 89.0134 95.2812C88.7281 95.1808 88.4338 95.1102 88.1349 95.0705C87.8491 95.0281 87.7463 94.9874 87.7463 94.9025C87.7463 94.7965 87.8284 94.754 88.1145 94.754C88.4619 94.754 89.5236 94.8177 90.1367 94.8177C90.8509 94.8177 91.3627 94.754 91.8935 94.754C92.0768 94.754 92.1384 94.795 92.1384 94.8813C92.1384 94.9647 92.0768 95.0069 91.873 95.0493C91.4637 95.1342 91.3831 95.2614 91.3831 95.4294C91.3831 95.6598 91.5665 96.0626 92.8336 97.4136C94.1416 98.8053 96.5113 101.274 97.431 102.245V100.873C97.431 97.5816 97.431 96.9911 97.3884 96.3154C97.3487 95.5962 97.1434 95.2402 96.6947 95.1342C96.4875 95.0799 96.2748 95.0513 96.0611 95.0493C95.9791 95.0493 95.8985 95.0069 95.8985 94.9238C95.8985 94.795 95.9995 94.754 96.224 94.754C96.8985 94.754 98.1452 94.8177 98.2477 94.8177C98.349 94.8177 99.5954 94.754 100.208 94.754C100.434 94.754 100.535 94.795 100.535 94.9238C100.535 95.0069 100.453 95.0493 100.373 95.0493C100.201 95.0555 100.029 95.0767 99.8608 95.1129C99.3095 95.2175 99.1466 95.5779 99.1055 96.3154C99.0646 96.9893 99.0646 97.5816 99.0646 100.873V102.246ZM116.265 101.422C116.265 101.507 116.285 101.527 116.347 101.527H116.898C119.249 101.527 120.309 101.822 121.188 102.308C122.578 103.09 123.436 104.356 123.436 106.17C123.436 108.195 121.862 110.77 118.369 110.77C117.552 110.77 116.04 110.643 115.448 110.643C115.347 110.643 114.1 110.706 113.487 110.706C113.263 110.706 113.16 110.664 113.16 110.538C113.16 110.474 113.242 110.432 113.407 110.411C113.631 110.39 113.754 110.369 113.937 110.326C114.345 110.241 114.448 109.778 114.53 109.165C114.633 108.279 114.633 106.613 114.633 104.588V100.853C114.633 97.5831 114.633 96.9911 114.592 96.2535C114.55 95.4524 114.223 95.1781 113.61 95.0917C113.426 95.0705 113.407 95.0705 113.1 95.051C112.915 95.0281 112.874 94.9647 112.874 94.8828C112.874 94.7767 112.997 94.7555 113.16 94.7555C113.937 94.7555 114.836 94.8192 115.347 94.8192C115.693 94.8192 120.515 94.8192 120.965 94.7979C121.415 94.7753 121.843 94.7343 121.966 94.6707C122.088 94.6073 122.131 94.5861 122.191 94.5861C122.252 94.5861 122.292 94.6285 122.273 94.7343C122.232 94.9237 122.17 95.1144 122.109 95.7052C122.063 96.1465 122.036 96.5897 122.028 97.0335C122.028 97.2878 121.946 97.3924 121.864 97.3924C121.741 97.3924 121.702 97.2878 121.702 97.1166C121.702 96.8426 121.661 96.5897 121.6 96.4215C121.458 95.9368 121.028 95.684 120.129 95.6401C118.897 95.608 117.664 95.5937 116.432 95.5976C116.31 95.5976 116.269 95.6613 116.269 95.8113V101.422H116.265ZM116.265 103.658C116.265 105.789 116.265 107.835 116.306 108.827C116.326 109.398 116.489 109.65 116.693 109.734C117.225 109.988 117.879 110.05 118.676 110.05C120.352 110.05 121.597 108.998 121.597 106.632C121.597 105.155 121.249 103.995 120.146 103.088C119.311 102.392 118.023 102.16 116.347 102.202C116.307 102.202 116.265 102.245 116.265 102.307V103.658ZM130.576 104.48C130.475 104.48 130.415 104.544 130.372 104.65L129.146 108.385C128.962 108.911 128.86 109.417 128.86 109.798C128.86 110.22 129.249 110.409 129.595 110.409H129.78C129.985 110.409 130.047 110.452 130.047 110.537C130.047 110.662 129.862 110.705 129.679 110.705C129.189 110.705 128.371 110.641 128.146 110.641C127.922 110.641 126.798 110.705 125.838 110.705C125.571 110.705 125.448 110.662 125.448 110.537C125.448 110.452 125.55 110.409 125.734 110.409C125.877 110.409 126.061 110.388 126.225 110.367C127.165 110.241 127.573 109.44 127.941 108.385L132.578 95.2812C132.823 94.5861 132.905 94.4588 133.03 94.4588C133.15 94.4588 133.233 94.5648 133.478 95.219C133.785 96.0202 136.992 104.733 138.238 107.941C138.974 109.819 139.566 110.156 139.995 110.284C140.302 110.388 140.629 110.409 140.793 110.409C140.915 110.409 141.016 110.43 141.016 110.537C141.016 110.662 140.833 110.705 140.608 110.705C140.302 110.705 138.809 110.705 137.4 110.662C137.011 110.641 136.787 110.641 136.787 110.515C136.787 110.429 136.848 110.388 136.93 110.365C137.052 110.325 137.175 110.135 137.052 109.796L135.153 104.606C135.113 104.521 135.071 104.479 134.968 104.479H130.576V104.48ZM134.703 103.721C134.805 103.721 134.805 103.658 134.785 103.573L132.843 97.8754C132.743 97.5589 132.639 97.5589 132.537 97.8754L130.739 103.573C130.699 103.677 130.739 103.721 130.8 103.721H134.703Z" fill="#1F3669"/>
</svg>
